<svg xmlns="http://www.w3.org/2000/svg" viewBox="0 0 454.06 527.48"><defs><clipPath id="a" transform="translate(-71.24 -157.71)"><path fill="none" d="M0 0h595.28v841.89H0z"></path></clipPath></defs><g data-name="Layer 2"><g clip-path="url(#a)" data-name="Layer 1"><path d="M227.03 527.48S91.55 438.15 37.4 292.01C.76 178.29 0 58.87 0 58.87S119 0 227 0s227 58.87 227 58.87-.73 119.42-37.34 233.14c-54.15 146.14-189.63 235.47-189.63 235.47" fill="#231f20"></path><path d="M227.03 516.73c-3.78-2.69-9.6-7-16.86-12.68-7.76-6.11-15.62-12.67-23.37-19.48a597.691 597.691 0 0 1-28.34-26.58 553.23 553.23 0 0 1-61.51-72.83 463.37 463.37 0 0 1-28.19-45.4 399.88 399.88 0 0 1-23-50.64 712.42 712.42 0 0 1-21-83.18c-4.58-23.82-8.29-48.75-11-74.1-3.49-32.22-4.51-56.9-4.8-67.44 3.45-1.6 8.56-3.92 15-6.71 11.58-5 30-12.47 52.1-20a621.1 621.1 0 0 1 71.85-19.9c28.48-6 55.09-9 79.08-9s50.69 3 79.24 9a618.41 618.41 0 0 1 71.94 19.95 698.41 698.41 0 0 1 66.9 26.6c-.3 10.58-1.33 35.39-4.83 67.69-2.75 25.31-6.46 50.21-11 74a712.34 712.34 0 0 1-20.93 83 399.85 399.85 0 0 1-23.12 50.76 461.94 461.94 0 0 1-28.24 45.5 553.86 553.86 0 0 1-61.66 73 608.355 608.355 0 0 1-28.37 26.57c-7.75 6.8-15.6 13.33-23.34 19.42-7.14 5.62-12.83 9.79-16.55 12.44" fill="#fff"></path><path d="M370.24 61.23a592.29 592.29 0 0 0-69.05-19.16c-26.88-5.64-51.83-8.49-74.16-8.49s-47.19 2.84-74 8.45a594.13 594.13 0 0 0-68.94 19.11 723.407 723.407 0 0 0-49.7 19c.65 12.18 1.83 29.15 4 49 2.25 20.75 5.16 41.21 8.68 61 9.34-3.7 20.84-8 33.61-12.38a607.44 607.44 0 0 1 70.6-19.56c27.47-5.75 53-8.66 75.79-8.66s48.42 2.92 75.94 8.69a607.56 607.56 0 0 1 70.7 19.62c11.15 3.79 22.32 7.91 33.36 12.29 3.5-19.68 6.4-40.06 8.65-60.73 2.16-19.94 3.35-37 4-49.24a700.662 700.662 0 0 0-49.45-18.95" fill="#231f20"></path><path d="M57.65 145.4q5.91-2.14 11.81-4.25-1.83-17.33-3.68-34.66l-10.76 3.61-3.51-24.81q31.67-10.83 63.58-20.88l1.52 25.76-11 3.35 2.67 34.16q6.78-2.28 13.58-4.53.68 12.47 1.34 24.94-31.18 10.6-62.09 22-1.72-12.35-3.46-24.68" fill="#fff"></path><path d="M71.06 98.47q2.44 23.35 4.86 46.69-5.83 2.07-11.67 4.17.88 6.31 1.74 12.63 25.41-9.29 51-18l-.7-12.66-13.4 4.51q-1.85-23.25-3.73-46.49 5.53-1.71 11.08-3.4l-.82-13.43q-25.66 8.12-51.16 16.8.9 6.43 1.79 12.87l11-3.66" fill="#ed1c24"></path><path d="M136.86 119.84l10.9-1.78q-.91-17.64-1.84-35.28-7 1.22-14.06 2.46-.3-12.49-.59-25l5.18-.92c10.11-1.78 20.27-3.32 30.44-4.69 17.4-2.35 35-4.48 52.64-4.54h.48a60.92 60.92 0 0 1 18.47 2.49 29.89 29.89 0 0 1 11.07 6 18.68 18.68 0 0 1 6 10.19 28.25 28.25 0 0 1-4.22 20.63c-.44.65-.91 1.28-1.39 1.91a24.46 24.46 0 0 1 5.49 8.58 26.82 26.82 0 0 1 1.82 8.27 25.28 25.28 0 0 1-3.6 14.75 24.6 24.6 0 0 1-9 8.2A32.33 32.33 0 0 1 232 134.9q-11.36.94-22.71 2-35.93 3.27-71.77 7.52l-.67-24.59m51.13-6.71q12.82-.88 25.65-1.66a10.91 10.91 0 0 0 4.08-1.3 4.8 4.8 0 0 0 2.1-2.32 3 3 0 0 0 0-2.05c-.17-.44-1.45-1.55-4.86-1.56q-13.51 1-27 2.11c0 2.26.05 4.52.08 6.78m.44-30.29q14.13-.7 28.25-1.27a7.41 7.41 0 0 0 2.44-1 4.87 4.87 0 0 0 2-4.07c0-.16 0-3.06-4.32-3.08q-14.19.74-28.39 1.6c0 2.61 0 5.22.05 7.83m149.51 66.36c1.31-8.25 2-15.26 3.31-23.52 3.3 1.08 7.22 2.17 10.52 3.26.22-1.76.45-4.77.67-6.53q-16.51-5.12-33.08-10-.3 3.6-.59 7.18l10.25 2.61q-1.69 12.09-3.33 24.09-28.8-5.69-57.7-10.76 1.19-12 2.39-23.9l11 1.62q2.17-23.62 4.41-47.27v-.11a9.39 9.39 0 0 1 3.24-5.56c3-2.69 7.4-3.34 11.3-3.22 1.29 0 2.59.18 3.88.35h.08c9.3 1.46 18.56 3.31 27.74 5.38 15.51 3.5 31.54 7.44 45.88 14.56a36.12 36.12 0 0 1 5.61 3.63c3.5 2.76 6.88 6.64 6.8 11.43a2.53 2.53 0 0 0 0 .27q-2.53 23-5 45.9l10.48 3.92-4.64 25.74s-35.39-12.95-53.19-19.15m17.26-47c.19-1.42.44-4.35.63-5.77a96.17 96.17 0 0 0-16.3-6.5c-5.8-1.81-11.89-3.55-18-3.9-.13 1.66-.33 4.82-.46 6.48q17.1 4.74 34.14 9.69" fill="#fff"></path><path d="M251.22 108.45c-.34-6.75-4.22-13.5-10.49-16.31 6.81-5 10.62-14 8.78-22.37-.33-2.68-2.23-5.14-4.18-6.86-6.79-6-17.15-6.88-25.74-6.87-7.29 0-14.61.5-21.89 1.12-20.13 1.71-40.21 4.51-60.11 8q.13 6.5.28 13 6.93-1.22 13.88-2.39 1.19 23.66 2.36 47.31l-11.07 1.78q.15 6.46.32 12.91 44-5.09 88.19-8.75a26.21 26.21 0 0 0 10.21-3.09c6.56-3.55 9.86-10.07 9.46-17.48m-37.14 8.95q-16 1-32.07 2.11l-.24-18.6q15.11-1.29 30.23-2.41c6.05 0 7.69.18 10.08 1.17s4.05 2.46 4.24 4.95a11.24 11.24 0 0 1-5.89 10.87 16.31 16.31 0 0 1-6.35 1.91m13.14-40.74a11.19 11.19 0 0 1-9.9 10.83q-17.49.69-35 1.61-.09-9.83-.17-19.65 17.25-1.09 34.52-2c3.7.09 8 1.12 9.78 4.72a7.75 7.75 0 0 1 .73 4.47m151.71 65.99q2.69-25.11 5.41-50.22c0-4.45-5.68-7.89-9.15-9.7a126.45 126.45 0 0 0-18.15-7 363.52 363.52 0 0 0-53.65-12.31c-3-.39-10.52-1.1-11.42 3.34q-2.58 26.72-5.09 53.44-5.52-.84-11-1.66-.63 6.1-1.25 12.22 23.08 4.1 46.08 8.59.87-6.35 1.75-12.69l-10-2.52q.78-9.75 1.57-19.5 22.65 6.64 45.17 13.68c-.75 5.8-1.74 12.84-2.49 18.64-3.37-1.12-7.11-2.24-10.48-3.36-.7 4.32-.77 7.39-1.46 11.71 14 4.92 42 15.11 42 15.11l2.52-13.88-10.33-3.84m-18.5-32.77q-22.81-6.69-45.73-13c.37-4.88.82-11.26 1.19-16.14 1.38-.78 3.33-.72 4.84-.7 7 .09 14.12 2.14 20.77 4.21 7.08 2.21 14.86 4.75 21 9.11-.67 5-1.41 11.51-2.08 16.51" fill="#ed1c24"></path><path d="M400.4 209.18c-10.42-4.11-21-8-31.39-11.53a593.58 593.58 0 0 0-69-19.16c-26.55-5.56-51.1-8.38-73-8.38s-46.33 2.81-72.83 8.35a593.86 593.86 0 0 0-68.9 19.1 714.1 714.1 0 0 0-31.65 11.62l-2.76 1.11a675.32 675.32 0 0 0 18.27 70.75 374.38 374.38 0 0 0 21.43 47 434.78 434.78 0 0 0 26.64 42.95 527.13 527.13 0 0 0 58.75 69.5c8.75 8.76 17.89 17.33 27.17 25.49 7.43 6.53 14.94 12.8 22.35 18.63l1.55 1.22 1.25-1c7.4-5.82 14.9-12.07 22.32-18.58a578.77 578.77 0 0 0 27.2-25.48 527.12 527.12 0 0 0 58.9-69.64 437 437 0 0 0 26.73-43 375.68 375.68 0 0 0 21.49-47.09 675.12 675.12 0 0 0 18.27-70.75z" fill="#00a1e4"></path><path d="M226.66 423.44a26.78 26.78 0 0 1-9.52-7.85c-3.92-5.33-6.71-3.47-9.84-2.38s-12.68 7.61-11 19.1c0 0 3.17.79 8.35-4.53 2.1-3.63 16-4.06 13.46 2.61a26.78 26.78 0 0 1-3.27 2.87c-2.37 1.86-7.28 5.91-3.46 14.88a62 62 0 0 0 5.11 7.15c3.07 3.7 7.3 8.38 8.8 11.91s1.29 4.53 2.46 4.79c1.16-.25 1-1.24 2.5-4.76s5.8-8.16 8.91-11.84a63.37 63.37 0 0 0 5.18-7.09c3.9-8.94-1-13-3.33-14.91a27.75 27.75 0 0 1-3.24-2.9c-2.65-6.78 10.86-5.6 13.48-2.49 4.64 5.63 8.31 4.6 8.31 4.6 1.82-11.47-7.67-18.07-10.79-19.2s-5.89-3-9.86 2.3a26.81 26.81 0 0 1-9.6 7.76 3.62 3.62 0 0 1-2.68 0m-37.79-46.81s-4.42-3.84-13.61-1.81c0 0-6.07-7.26-18.4-6.52s-12.88 8.97-12.88 8.97 7.1-2.26 10.85 1c0 0-8.59 4.2-9.25 8.32 0 0 .36 1.74 10.2 1 0 0 3.15 1.63.15 4.14s-6.84 5.4-2.51 7.11c0 0 6-7.74 18.21-4.68s6.47 17.46 6.47 17.46-1.19 3.5 2.52 1.8 12.45-2.82 9.78-18a26.28 26.28 0 0 0-3.29-7.45c-2.19-3.1 2.05-6 2.05-6s2.87-1.38-.29-5.34m79.61-1.94s4.61-3.64 13.69-1.18c0 0 6.42-7 18.7-5.64s12.43 9.54 12.43 9.54-7-2.6-10.9.5c0 0 8.38 4.6 8.84 8.75 0 0-.44 1.72-10.24.53 0 0-3.23 1.47-.35 4.13s6.57 5.71 2.16 7.21c0 0-5.65-8-18-5.53s-7.32 17.14-7.32 17.14 1 3.55-2.6 1.67-12.3-3.39-8.89-18.43a26.13 26.13 0 0 1 3.65-7.28c2.34-3-1.76-6.1-1.76-6.1s-2.79-1.52.55-5.31m-40.39-135.52s7.55 10.78 24.58 10.05c0 0 11.8-1.47 16.38-12.17 0 0-1-1.85-6-2s-6.43-2.36-6.85-3.15-1.46-4.09-9-5.33c0 0-4.09-.59-4.48-.19s-7.11 9.88-14.52 9.07c-7.45.18-13.32-9.84-13.67-10.27s-4.47-.19-4.47-.19c-7.59.6-8.92 3.79-9.41 4.55s-2.09 2.8-7.1 2.56-6.15 1.52-6.15 1.52c3.62 11.05 15.25 13.51 15.25 13.51 16.9 2.17 25.37-7.93 25.37-7.93zm-17.2-42.55s1.56-2.14-2.21-3.56-4-4.16-4.42-5.23-1.06-3-7-1.85c0 0-9.48 2.47-9.39 7.66s.09 7.23 2.37 7.65c0 0 .5.14 1.91-2.11s5.57-4.47 10.12-3.6 6.12 1.82 8.59 1" fill="#fff"></path><path d="M261.66 209.21a10.73 10.73 0 0 1-4.78-2.21c-3.46-2.58-5.56-11.27-5.56-11.27-.58-2.43 1.84-4.05 1.84-4.05 4.25-3.36 5.1-6.58 5.1-6.58 1.11-5.33-1.63-4.9-1.63-4.9-1 .84-2.51 1.18-7.4 2.48s-8.47 0-16.92-1.51-14.12-3.32-21.05-1.51-6.21 6.39-6.21 6.39c1.23 4.79 7.92 7.72 9.73 10.7s-.16 4-.59 4.19-7.67-2.55-12.51-2.71-7.51 2.61-7.28 3.15 1.67.31 1.67.31a12.7 12.7 0 0 1 4.53-.07c6.93.88 5.13 6.61 5.13 6.61-1.31 5.23-6.44 4.25-6.44 4.25-3.85-.87-4.56.34-4.56.34a5.76 5.76 0 0 0 2.82 5.25c7 3.81 11.94 2.12 15.42 1.47s4.62 2.88 4.62 2.88c5.19 8.45 9.48 7.72 9.48 7.72 4.86-1.76 12-9.8 12-9.8a27.09 27.09 0 0 0 13.83.27c5.23-1.29 7.35-4.76 9.43-7.78s-.64-3.62-.64-3.62m-31.53-18.08c-1.86-.38-5.38-1.48-8.3-.58a5.58 5.58 0 0 0-3 1.89s-3.86 1.06-4.16-2.75 2.56-4 4.44-3.51 7.08 2.66 8.85 3.24 4.6 1.24 4.6 1.24-.59.85-2.45.47" fill="#fff"></path><path d="M327.92 196.89c-26.07-6.65-39.31-7.24-39.31-7.24-15.39-1.72-17.45 4.64-17.45 4.64-4.32 7.54 1.77 14.19 1.77 14.19 6.53 8.17 7.3 13.67 7.3 13.67 3.16 13.36-4.67 24.2-4.67 24.2-11.35 15.74-20.73 6.2-20.73 6.2-12.56 3.52-27.18-6.6-27.18-6.6s-14.55 10.14-27.14 6.69c0 0-9.32 9.63-20.76-6 0 0-7.89-10.8-4.81-24.18 0 0 .74-5.51 7.23-13.71 0 0 6-6.68 1.69-14.19 0 0-2.09-6.34-17.48-4.55 0 0-13.23.66-39.27 7.43 0 0-32.82 7.74-58.26 18.62a97.67 97.67 0 0 0 4.73 16.92s2.18 6.01 12.18 6.2a142 142 0 0 0 34-4.36l18.33-4.92s2.37 3.46 1.07 5.4c0 0-.27.52-3.68 1.45 0 0-30.15 9.52-45.25 9.58 0 0-8.78-.28-13.11-1.3 0 0-.45 14.68 10.2 22.2 0 0 2.75 2.62 12.83 1.36 0 0 12.59-1.4 43-8.84 0 0 2.8 6.21-.14 6.75 0 0-33.85 8.08-41.87 8.82 0 0-10.3 1-14.54.05 0 0 .78 15.91 12.58 23.28 0 0 8.16 3.69 22.58.45 0 0 31-8.15 31.45-8.25 0 0 4.08 6.47-.06 7.31 0 0-31.27 8.66-41.39 9.14 0 0-10.33-.12-13.93-.94 0 0 6.66 19.86 18.76 26.06 0 0 5.29 3.55 18.32.62a154.07 154.07 0 0 0 31.85-13.06s5.31 3.91 2.05 5.88c0 0-20.44 11.37-37.43 13.69 0 0-9.13.89-15.57-.16 0 0 6.15 20.55 26.73 21.61 0 0 17.8 3.25 46.35-17.68 0 0 14.35 6.94 9.75 9.61 0 0-5 3.83-13.88 3.38 0 0-9.63-2-6.34 6.29s7 8 11.67 8.71c0 0 4.05 1.59 4.78 7.63 0 0 3.16 6.33 8.61 5.06 0 0 2.63.12 1.94-4.85s.34-7.27 5.34-8.86 8.89 2.53 9.49 6 1.26 5.54-4.64 8.47-13.76 4.27-16.76 7.76-6.31 9.58-3.85 15.54c0 0 .8 3.67 4.5.84a22.37 22.37 0 0 1 15-6.49s2.74-.55 4.84 3.19 4.44 9.43 8.75 9.73c4.31-.32 6.62-6 8.7-9.77s4.82-3.22 4.82-3.22a22.35 22.35 0 0 1 15.15 6.38c3.72 2.81 4.5-.86 4.5-.86 2.42-6-.91-12.06-3.94-15.53s-10.89-4.78-16.8-7.67-5.27-5-4.69-8.45 4.48-7.58 9.46-6 6.08 3.86 5.43 8.84 2 4.84 2 4.84c5.45 1.24 9.19-5.74 9.19-5.74.92-7 4.12-7 4.12-7 4.64-.73 8.38-.43 11.62-8.76s-6.38-6.27-6.38-6.27c-8.91.5-13.89-3.31-13.89-3.31-4.62-2.64 9.7-9.65 9.7-9.65 28.67 20.78 46.44 17.44 46.44 17.44 20.58-1.16 26.61-21.73 26.61-21.73-6.43 1.08-15.57.23-15.57.23-17-2.24-37.5-13.5-37.5-13.5-3.27-2 2-5.89 2-5.89a154.19 154.19 0 0 0 31.85 12.9c13 2.86 18.31-.71 18.31-.71 12.07-6.26 18.62-26.15 18.62-26.15-3.6.83-13.93 1-13.93 1-10.12-.43-41.44-8.94-41.44-8.94-4.14-.82-.11-7.31-.11-7.31.44.1 31.52 8.1 31.52 8.1 14.43 3.17 22.57-.57 22.57-.57 11.75-7.43 12.45-23.33 12.45-23.33-4.24 1-14.55 0-14.55 0-8-.7-41.92-8.61-41.92-8.61-2.94-.52-.18-6.75-.18-6.75 30.51 7.29 43.1 8.63 43.1 8.63 10.09 1.21 12.82-1.42 12.82-1.42 10.59-7.59 10.04-22.26 10.04-22.26-4.34 1.05-13.11 1.37-13.11 1.37-15.1 0-45.3-9.35-45.3-9.35-3.42-.92-3.69-1.43-3.69-1.43-1.32-1.94 1-5.41 1-5.41l18.39 4.82a142.33 142.33 0 0 0 34 4.19c10-.24 12.12-6.32 12.12-6.32a97.56 97.56 0 0 0 4.62-16.94c-25.5-10.75-58.36-18.33-58.36-18.33m-162.33 75.46c-8.52-.05-13.11-9.92-13.11-9.92-4-13.79 4.09-20.25 4.09-20.25 4.15-.33 1.7 3.78 1.7 3.78a15.85 15.85 0 0 0-2.59 13.87c1.19 6.33 9.47 9 9.47 9 3.05 1.44.44 3.47.44 3.47m6-23.64a15.92 15.92 0 0 1-8.57-10.75c-1-7.68 1.52-10.63 3.37-13s2.62.12 2.62.12c-1.84 3.33-2.41 10.53-2.41 10.53.23 7.4 5.85 9.65 5.85 9.65 2.13 2.42-.86 3.43-.86 3.43m4 22.57c-3.37-6.3-1.08-12.19.93-15.41s2.43 1.1 2.43 1.1a13.36 13.36 0 0 0-1.15 9.86 7.36 7.36 0 0 0 5.21 5.58c3.79.84 4.77 2.05 4.77 2.05 2.25 2.38-1.09 2.78-1.09 2.78-8.79-.32-11.1-6-11.1-6m28.36 32.37c-2.78 3.69-8.49 1.93-13.13-.56s-6.02-7.69-5.55-13.49 3.53-3.91 3.53-3.91c2.5 1 1.83 1.93 1.65 3.34a11.72 11.72 0 0 0 1.52 8c2.1 3.58 5.75 2.86 9.93 3.16s2.08 3.61 2.08 3.61m73.79-8.9c-4.44 6.22-8.75 6.39-8.75 6.39-4.43 0-.94-4.36-.94-4.36a33.51 33.51 0 0 0 7-8.23 11.15 11.15 0 0 0 .34-4.53 7.84 7.84 0 0 1-.06-3.29c.84-3.73 3.94.26 3.94.26 3 7.41-1.57 13.76-1.57 13.76m9.54-33.7c-1.44 7.58-8.59 10.77-8.59 10.77-3.49 1.78-4.86.17-4.86.17-2.11-2.79 1.55-3.46 1.55-3.46 6.5-1.5 8-8.13 8-8.13a20.29 20.29 0 0 0-.77-11.15c-.85-3.21 2.69-.82 2.69-.82 3 5.14 2 12.6 2 12.6m4.27-23.28c-1.06 1.48-2 2.1-3.34 1.28s-.46-3.08-.46-3.08c3.71-4.76 2.35-9 2.35-9a53.83 53.83 0 0 0-2.87-8.11c-.74-1.7.73-2.86 2.77-1.45s4.53 8.43 4.53 8.43c1.57 5.71-1.92 10.43-3 11.9m10.72 13.26c-2.11 7.69-5.31 8.47-5.31 8.47-3.32 0-1.76-2.52-1.76-2.52a22.22 22.22 0 0 0 3.14-8c.7-4.44-.5-6.82-.5-6.82-.51-3.81 3.05-1.05 3.05-1.05 3.37 5.53 1.38 9.92 1.38 9.92" fill="#fff"></path><path d="M245.91 288.57s-19.6-3-31 .61c0 0-.64-.2-2.86-2.79s-3-4-5.06-4.3c0 0-6-1.34-7.78-2.91 0 0-3.56-2.82-3-7.21 0 0 1.16-4.86 5.56-1.85 3.64 2.47 7.78 6.37 11 6.42 0 0 1.95 0 .3-2.6s-2.21-4.81-6-6.89c0 0-6.06-3.24-2.37-6.77 0 0 3.06-3.16 4.64-1.27 0 0 3.33 3.68 5.77 6.89 0 0 1.62 3.06 3.5 2.35 0 0 1.17-.44.37-3.39s0-5 1.2-5.07 2.38-.34 3 4.57.23 7.16 1.78 7.23c0 0 1.05.93 1.82-3.8 0 0 1.64-11.91 4.62-14.94 0 0 3.1-.51 5.17 1a8 8 0 0 1 2.47 5.1s-5.23 3.83-6.57 9.16c0 0-1 4 .79 4.72 0 0 2 .92 3.89-2.76 0 0 3.89-10.27 6.49-10.92a4.67 4.67 0 0 1 3.49 3.05s-.51 2.48-5.73 9.57c-.9 1-2.28 4.08-.42 5.09 0 0 2 1.5 4.23-2.59 0 0 3.95-7.76 5-6.79s5.67 4.64 3.38 5.61-3.25-.05-6.59 3.64-3.29 5-2.39 5.51c0 0 2 .36 5.85-4.49 0 0 2.27-2.25 4.32-.09s3.07 3.6 1 4.87-4.48-.45-7.15 2.79zm-.89 5.11s-21.87-2.63-29 .23c0 0-1.8.58-3.94 3.4-.76 1-3.17 5.12-4.13 6.46-.74 1-1.56 2.15-2.17 2.89a3.41 3.41 0 0 0-.19 4.49c.86 1.1 1.93 2.89 3.86 1s3.93-4 5.23-2.85a4 4 0 0 1 .19 4.35c-1.11 1.95-2.49 5.08-1.52 6.91a4.11 4.11 0 0 0 3.23 1.48c1.31-.25 2-1.75 2.37-4.17.47-3.52.68-7.72 4.27-7.42 0 0 2.57 1.61 1.63 6.09s-1.37 5.75-1.22 7a4.24 4.24 0 0 0 1 2.78 4.86 4.86 0 0 0 3 .76c.83-.36 1.72-1.71 1.42-6.05 0 0-1.14-7 2.64-7 0 0 3.62-.29 3.56 5.82s1.12 7.08 1.94 7c0 0 2.55.2 1.9-3.66s-2.13-9 .39-9.54 2.84 2.85 3.47 4 .82 2.64 2.38 2.46.69-1.81.31-3.89-2.28-6.52 0-6.89c0 0 .92-.87 3.27 4.2a2.16 2.16 0 0 0 1.43.94c.83.2 5-.68 5.47-1.43.34-.58.32-1.62-.82-3.46l-9.89-15.94" fill="#ed1c24"></path></g></g></svg>