<?xml version="1.0" encoding="UTF-8" standalone="no"?>
<!-- Generator: Adobe Illustrator 19.2.0, SVG Export Plug-In . SVG Version: 6.00 Build 0)  -->

<svg
   xmlns:dc="http://purl.org/dc/elements/1.1/"
   xmlns:cc="http://creativecommons.org/ns#"
   xmlns:rdf="http://www.w3.org/1999/02/22-rdf-syntax-ns#"
   xmlns:svg="http://www.w3.org/2000/svg"
   xmlns="http://www.w3.org/2000/svg"
   xmlns:xlink="http://www.w3.org/1999/xlink"
   xmlns:sodipodi="http://sodipodi.sourceforge.net/DTD/sodipodi-0.dtd"
   xmlns:inkscape="http://www.inkscape.org/namespaces/inkscape"
   version="1.1"
   id="Layer_1"
   x="0px"
   y="0px"
   viewBox="0 0 197.8 255.2"
   xml:space="preserve"
   sodipodi:docname="logo.svg"
   width="197.8"
   height="255.2"
   inkscape:version="0.92.3 (2405546, 2018-03-11)"><metadata
   id="metadata168"><rdf:RDF><cc:Work
       rdf:about=""><dc:format>image/svg+xml</dc:format><dc:type
         rdf:resource="http://purl.org/dc/dcmitype/StillImage" /><dc:title></dc:title></cc:Work></rdf:RDF></metadata><defs
   id="defs166" /><sodipodi:namedview
   pagecolor="#ffffff"
   bordercolor="#666666"
   borderopacity="1"
   objecttolerance="10"
   gridtolerance="10"
   guidetolerance="10"
   inkscape:pageopacity="0"
   inkscape:pageshadow="2"
   inkscape:window-width="1920"
   inkscape:window-height="1137"
   id="namedview164"
   showgrid="false"
   fit-margin-top="0"
   fit-margin-left="0"
   fit-margin-right="0"
   fit-margin-bottom="0"
   inkscape:zoom="3.3650794"
   inkscape:cx="98.95"
   inkscape:cy="126.35"
   inkscape:window-x="0"
   inkscape:window-y="30"
   inkscape:window-maximized="1"
   inkscape:current-layer="Layer_1" />
<style
   type="text/css"
   id="style117">
	.st0{clip-path:url(#SVGID_2_);fill:#FFFFFF;}
	.st1{clip-path:url(#SVGID_2_);fill:#1295D8;}
	.st2{clip-path:url(#SVGID_2_);fill:#EE3A3A;}
	.st3{clip-path:url(#SVGID_2_);}
	.st4{clip-path:url(#SVGID_2_);fill:#FFCC52;}
</style>
<g
   id="g161"
   transform="translate(-42.8,-12.9)">
	<defs
   id="defs120">
		<rect
   id="SVGID_1_"
   width="283.5"
   height="283.5"
   x="0"
   y="0" />
	</defs>
	<clipPath
   id="SVGID_2_">
		<use
   xlink:href="#SVGID_1_"
   style="overflow:visible"
   id="use122"
   x="0"
   y="0"
   width="100%"
   height="100%" />
	</clipPath>
	<path
   class="st0"
   d="m 141.7,12.9 c 27.6,29.2 61,46.6 98.9,54.4 -3.8,80.8 -36.8,148.4 -98.9,200.8 C 79.7,215.7 46.6,148.2 42.8,67.3 80.7,59.5 114.1,42.1 141.7,12.9"
   clip-path="url(#SVGID_2_)"
   id="path125"
   inkscape:connector-curvature="0"
   style="fill:#ffffff" />
	<path
   class="st1"
   d="M 185.2,52 C 169.4,43.4 154.8,32.4 141.7,19.2 128.7,32.4 114.1,43.4 98.2,52 82.7,60.4 65.7,66.7 47.4,70.8 c 1.1,18.5 3.8,36.5 8,53.5 4.5,18.1 10.9,35.7 18.9,52.1 8.1,16.4 18.1,32.2 29.7,46.8 10.9,13.8 23.6,26.9 37.6,39 14.1,-12.2 26.7,-25.3 37.6,-39 11.6,-14.6 21.6,-30.4 29.7,-46.8 8.1,-16.4 14.4,-33.9 18.9,-52.1 4.2,-17 6.9,-35 8,-53.5 -18,-4.1 -35.1,-10.4 -50.6,-18.8 m 23.7,67.6 c -4.2,16.8 -10.1,33 -17.5,48.1 -7.5,15.2 -16.7,29.7 -27.4,43.3 -6.7,8.5 -14.2,16.7 -22.2,24.6 C 133.7,227.7 126.3,219.5 119.6,211 108.9,197.5 99.6,182.9 92.2,167.7 84.8,152.6 78.9,136.4 74.7,119.6 72,108.7 70,97.3 68.6,85.6 82.4,81.4 95.5,75.9 107.8,69.3 119.9,62.8 131.3,54.9 141.9,46 c 10.6,9 22.1,16.8 34.1,23.3 12.2,6.6 25.3,12.1 39.2,16.3 -1.5,11.7 -3.6,23 -6.3,34"
   clip-path="url(#SVGID_2_)"
   id="path127"
   inkscape:connector-curvature="0"
   style="fill:#1295d8" />
	<path
   class="st2"
   d="M 141.7,229.3 C 134.9,222.5 128.6,215.4 122.9,208.2 112.3,194.9 103.3,180.6 96,165.7 88.7,150.8 82.9,134.9 78.8,118.5 76.4,108.9 74.6,98.9 73.3,88.7 c 12.8,-4.1 25,-9.3 36.4,-15.5 11.2,-6.1 22,-13.3 32,-21.5 10,8.2 20.8,15.4 32,21.5 11.4,6.2 23.6,11.4 36.4,15.5 -1.3,10.2 -3.2,20.2 -5.5,29.8 -4.1,16.5 -9.9,32.4 -17.2,47.2 -7.3,14.9 -16.4,29.2 -26.9,42.5 -5.7,7.2 -12,14.3 -18.8,21.1"
   clip-path="url(#SVGID_2_)"
   id="path129"
   inkscape:connector-curvature="0"
   style="fill:#ee3a3a" />
	<path
   class="st3"
   d="m 177.2,161.4 c 0,-19.6 -15.9,-35.4 -35.4,-35.4 -19.6,0 -35.4,15.9 -35.4,35.4 0,19.5 15.9,35.4 35.4,35.4 19.5,0.1 35.4,-15.8 35.4,-35.4"
   clip-path="url(#SVGID_2_)"
   id="path131"
   inkscape:connector-curvature="0" />
	<path
   class="st4"
   d="m 128.8,171.5 c 0.8,0.8 1.4,1.6 1.7,2 0.8,1 3.3,4.3 4.3,6.9 1.7,-0.7 4.3,-1 6.9,-1 2.6,0 5.2,0.3 6.9,1 1,-2.7 3.5,-5.9 4.3,-6.9 0.3,-0.4 1,-1.2 1.7,-2 -3.1,0.7 -7.3,1.2 -13,1.2 -5.7,0 -9.8,-0.5 -12.8,-1.2"
   clip-path="url(#SVGID_2_)"
   id="path133"
   inkscape:connector-curvature="0"
   style="fill:#ffcc52" />
	<path
   class="st4"
   d="m 154.7,151.3 c -0.8,-0.8 -1.4,-1.6 -1.7,-2 -0.8,-1 -3.3,-4.3 -4.3,-6.9 -3.4,1.4 -10.4,1.4 -13.8,0 -1,2.7 -3.5,5.9 -4.3,6.9 -0.3,0.4 -1,1.2 -1.7,2 3.1,-0.7 7.3,-1.2 13,-1.2 5.5,0 9.7,0.5 12.8,1.2"
   clip-path="url(#SVGID_2_)"
   id="path135"
   inkscape:connector-curvature="0"
   style="fill:#ffcc52" />
	<path
   class="st4"
   d="m 150.8,140.5 c 0,0.1 0.1,0.2 0.1,0.3 0.7,3.1 6.8,10.8 9.5,11.9 l 11.8,-3.9 c -3.3,-8 -9.8,-14.5 -17.8,-17.8 z"
   clip-path="url(#SVGID_2_)"
   id="path137"
   inkscape:connector-curvature="0"
   style="fill:#ffcc52" />
	<path
   class="st4"
   d="m 161.5,155.1 c 0,0.1 -0.1,0.2 -0.2,0.3 -1.3,2.1 -1.3,9.9 0,11.9 0.1,0.1 0.1,0.2 0.2,0.3 l 11.5,3.9 c 1,-3.2 1.6,-6.6 1.6,-10.2 0,-3.6 -0.6,-7 -1.6,-10.2 z"
   clip-path="url(#SVGID_2_)"
   id="path139"
   inkscape:connector-curvature="0"
   style="fill:#ffcc52" />
	<path
   class="st4"
   d="m 121.9,167.7 c 0,-0.1 0.1,-0.2 0.2,-0.3 1.3,-2.1 1.3,-9.9 0,-11.9 -0.1,-0.1 -0.1,-0.2 -0.2,-0.3 l -11.5,-3.9 c -1,3.2 -1.6,6.6 -1.6,10.2 0,3.6 0.6,7 1.6,10.2 z"
   clip-path="url(#SVGID_2_)"
   id="path141"
   inkscape:connector-curvature="0"
   style="fill:#ffcc52" />
	<path
   class="st4"
   d="m 148.4,183.2 c -0.1,0 -0.1,-0.1 -0.2,-0.1 -2.3,-1.4 -10.6,-1.4 -12.9,0 -0.1,0 -0.1,0.1 -0.2,0.1 l -3.5,9.5 c 3.2,1 6.6,1.6 10.1,1.6 3.5,0 6.9,-0.6 10.1,-1.6 z"
   clip-path="url(#SVGID_2_)"
   id="path143"
   inkscape:connector-curvature="0"
   style="fill:#ffcc52" />
	<path
   class="st4"
   d="m 160.4,170.1 c -2.7,1.2 -8.8,8.8 -9.5,11.9 0,0.1 -0.1,0.2 -0.1,0.3 l 3.5,9.5 c 8,-3.3 14.5,-9.8 17.8,-17.8 z"
   clip-path="url(#SVGID_2_)"
   id="path145"
   inkscape:connector-curvature="0"
   style="fill:#ffcc52" />
	<path
   class="st4"
   d="m 132.7,182.3 c 0,-0.1 -0.1,-0.2 -0.1,-0.3 -0.7,-3.1 -6.8,-10.8 -9.5,-11.9 l -11.8,3.9 c 3.3,8 9.8,14.5 17.8,17.8 z"
   clip-path="url(#SVGID_2_)"
   id="path147"
   inkscape:connector-curvature="0"
   style="fill:#ffcc52" />
	<path
   class="st4"
   d="m 135.1,139.6 c 0.1,0 0.1,0.1 0.2,0.1 2.3,1.4 10.6,1.4 12.9,0 0.1,0 0.1,-0.1 0.2,-0.1 l 3.5,-9.5 c -3.2,-1 -6.6,-1.6 -10.1,-1.6 -3.5,0 -6.9,0.6 -10.1,1.6 z"
   clip-path="url(#SVGID_2_)"
   id="path149"
   inkscape:connector-curvature="0"
   style="fill:#ffcc52" />
	<path
   class="st4"
   d="m 123.1,152.8 c 2.7,-1.2 8.8,-8.8 9.5,-11.9 0,-0.1 0.1,-0.2 0.1,-0.3 l -3.5,-9.5 c -8,3.3 -14.5,9.8 -17.8,17.8 z"
   clip-path="url(#SVGID_2_)"
   id="path151"
   inkscape:connector-curvature="0"
   style="fill:#ffcc52" />
	<path
   class="st4"
   d="m 128.2,160.1 v -1.4 c 0,-0.7 0.6,-1.3 1.3,-1.3 0.7,0 1.3,0.6 1.3,1.3 v 1.4 h 2.1 v -1.4 c 0,-0.7 0.6,-1.3 1.3,-1.3 0.7,0 1.3,0.6 1.3,1.3 v 1.4 h 2.4 v -1.4 c 0,-0.7 0.6,-1.3 1.3,-1.3 0.7,0 1.3,0.6 1.3,1.3 v 1.4 h 2.4 v -1.4 c 0,-0.7 0.6,-1.3 1.3,-1.3 0.7,0 1.3,0.6 1.3,1.3 v 1.4 h 2.4 v -1.4 c 0,-0.7 0.6,-1.3 1.3,-1.3 0.7,0 1.3,0.6 1.3,1.3 v 1.4 h 2.1 v -1.4 c 0,-0.7 0.6,-1.3 1.3,-1.3 0.7,0 1.3,0.6 1.3,1.3 v 1.4 h 2.6 c 0.1,-1.8 0.4,-3.6 0.8,-4.9 -2.1,-0.9 -7.3,-2.6 -16.9,-2.6 -9.6,0 -14.8,1.7 -16.9,2.6 0.5,1.3 0.7,3 0.8,4.9 z"
   clip-path="url(#SVGID_2_)"
   id="path153"
   inkscape:connector-curvature="0"
   style="fill:#ffcc52" />
	<path
   class="st4"
   d="m 155.2,162.7 v 1.4 c 0,0.7 -0.6,1.3 -1.3,1.3 -0.7,0 -1.3,-0.6 -1.3,-1.3 v -1.4 h -2.1 v 1.4 c 0,0.7 -0.6,1.3 -1.3,1.3 -0.7,0 -1.3,-0.6 -1.3,-1.3 v -1.4 h -2.4 v 1.4 c 0,0.7 -0.6,1.3 -1.3,1.3 -0.7,0 -1.3,-0.6 -1.3,-1.3 v -1.4 h -2.4 v 1.4 c 0,0.7 -0.6,1.3 -1.3,1.3 -0.7,0 -1.3,-0.6 -1.3,-1.3 v -1.4 h -2.4 v 1.4 c 0,0.7 -0.6,1.3 -1.3,1.3 -0.7,0 -1.3,-0.6 -1.3,-1.3 v -1.4 h -2.1 v 1.4 c 0,0.7 -0.6,1.3 -1.3,1.3 -0.7,0 -1.3,-0.6 -1.3,-1.3 v -1.4 h -2.6 c -0.1,1.8 -0.4,3.6 -0.8,4.9 2.1,0.9 7.3,2.6 16.9,2.6 9.6,0 14.8,-1.7 16.9,-2.6 -0.5,-1.3 -0.7,-3 -0.8,-4.9 z"
   clip-path="url(#SVGID_2_)"
   id="path155"
   inkscape:connector-curvature="0"
   style="fill:#ffcc52" />
	<path
   class="st0"
   d="m 101.7,139.4 c -0.5,0 -0.9,-0.3 -1.2,-0.9 V 93.8 c 0,-0.4 0.2,-0.8 0.6,-1.1 l 8,-4.8 c 0.2,-0.1 0.4,-0.2 0.6,-0.2 0.3,0 0.7,0.2 0.9,0.4 0.2,0.2 0.3,0.5 0.3,0.8 V 101 l 1.6,-1 c 7.7,-4.6 12.8,-17.3 13.2,-21.5 0,-0.4 0.3,-0.7 0.6,-0.9 l 12.3,-7.3 c 0.2,-0.1 0.4,-0.2 0.6,-0.2 0.4,0 0.8,0.2 1,0.6 0.2,0.2 0.2,0.5 0.2,0.8 -0.7,5.5 -4.2,15.4 -8.4,21.5 -3.3,4.7 -7,8.8 -8,9.8 l 12.2,11.7 c 0.3,0.3 0.4,0.6 0.4,1 0,0.6 -0.5,1.1 -1.1,1.1 -3.4,0.5 -6.7,1.3 -9.9,2.5 -0.1,0.1 -0.3,0.1 -0.4,0.1 -0.3,0 -0.6,-0.1 -0.8,-0.3 l -7.3,-6.9 c -0.8,-0.8 -1.9,-1.2 -3.1,-1.2 -0.8,0 -1.6,0.2 -2.3,0.6 l -0.9,0.5 v 16 c 0,0.3 -0.1,0.7 -0.4,0.9 -3.1,2.9 -5.7,6.3 -7.8,9.9 0,0.5 -0.5,0.7 -0.9,0.7"
   clip-path="url(#SVGID_2_)"
   id="path157"
   inkscape:connector-curvature="0"
   style="fill:#ffffff" />
	<path
   class="st0"
   d="m 180.8,137.8 c -0.4,0 -0.8,-0.2 -1,-0.6 -2.7,-4.2 -6.1,-8 -10,-11.1 -0.2,-0.2 -0.4,-0.4 -0.4,-0.7 l -1.3,-7 c -3.4,-2.3 -7,-4.1 -10.8,-5.4 l -0.8,4.4 c -0.1,0.3 -0.3,0.6 -0.6,0.8 -0.2,0.1 -0.4,0.2 -0.6,0.2 -0.1,0 -0.2,0 -0.4,-0.1 -2.3,-0.7 -4.6,-1.2 -7,-1.5 -0.6,-0.1 -1.1,-0.7 -1,-1.3 l 3,-31.1 c -0.6,-0.7 -4.1,-4.9 -4.6,-11.5 0,-0.5 0.2,-0.9 0.6,-1.1 0.2,-0.1 0.4,-0.2 0.6,-0.2 0.2,0 0.4,0.1 0.6,0.2 l 24.5,14.5 c 0.6,0.4 1,1 1.2,1.6 l 9.1,48.4 c 0.1,0.6 -0.2,1.1 -0.8,1.4 0,0.1 -0.2,0.1 -0.3,0.1 m -22,-33.6 c 2.3,0.7 4.9,1.6 7.2,2.6 L 163.5,93 c -0.1,-0.7 -0.7,-1.2 -1.4,-1.2 -0.7,0 -1.3,0.5 -1.4,1.2 z"
   clip-path="url(#SVGID_2_)"
   id="path159"
   inkscape:connector-curvature="0"
   style="fill:#ffffff" />
</g>
</svg>