<svg xmlns="http://www.w3.org/2000/svg" xmlns:xlink="http://www.w3.org/1999/xlink" width="63.41" height="93" viewBox="0 0 63.41 93"><style>.st2{fill:#fff}</style><g id="Layer_1"><path d="M31.71 0L0 20.22s.86 30.77.99 32.73c.19 2.94.69 19.18 9.65 28.39C22 93 31.71 93 31.71 93s9.71 0 21.06-11.67c8.97-9.22 9.47-25.45 9.65-28.39.12-1.95.99-32.73.99-32.73" fill-rule="evenodd" clip-rule="evenodd" fill="#e7362a"></path><path d="M55.26 18.74L36.98 7.09c-1.26 1.74-3.47 2.89-5.99 2.89-2.51 0-4.73-1.16-5.99-2.89L2.83 21.22c.29 9.41.8 26.06.89 27.46.03.44.02 1.17.01 2.13" fill-rule="evenodd" clip-rule="evenodd" fill="#fff"></path><path class="st2" d="M8.51 73.86c.8 1.29 1.72 2.51 2.81 3.63 11.35 11.66 19.67 11.66 19.67 11.66s8.32 0 19.67-11.67c8.97-9.22 7.41-25.87 7.6-28.81.03-.48.11-2.76.21-5.93"></path><defs><path id="SVGID_1_" d="M8.51 73.86c.8 1.29 1.72 2.51 2.81 3.63 11.35 11.66 19.67 11.66 19.67 11.66s8.32 0 19.67-11.67c8.97-9.22 7.41-25.87 7.6-28.81.03-.48.11-2.76.21-5.93"></path></defs><clipPath id="SVGID_2_"><use xlink:href="#SVGID_1_"></use></clipPath><path d="M8.24 75.05h16.75c1.25.01 1.68-.68 1.66-1.67-.01-.39.2-1.8.44-2.54.02-1.12.36-2.35.59-2.6.38-.45 1.15-.15 1.92-.18.79-.16 1.58-.19 1.73-.13.72.25.36.88.83.95.78-.16 1.06-.74 1.3-.85.37-.18.76.05 1.05.02.49-.05 2.69-.82 3.14-.79.33.02.59.38.95.45.1.01.51-.05 1.05.16.17-.03.6-.12 1.13-.13.41-.02.25.34.74.29.24 0-.08-.31.72-.31.38-.1.64.15.92.13.29-.01.73-.26 1-.27.77.07 1.74-.05 1.87.56.05.25-.13.92-.13 1.39-.04.36.38.92.53 1.76-.05 1.03-.1 2.74.08 3.17.23.27.74.36 1.71.2.34-.36.85-1.69 1.15-2.7.26-.4.12-1.12.29-1.12.43-.09.18.5.41.9.04.23.03.51.08.65.13.4.34.46.38.62.03.39-.17 1.2.24 1.69h3.14l-5.66 7.18-6.73 4.54-6.73 3.3-5.32.83-6.41-1.93-5.84-3.74-5.16-3.99-2.5-3.17" clip-path="url(#SVGID_2_)" fill-rule="evenodd" clip-rule="evenodd" fill="#0b5eaa"></path><path d="M23.79 12.82c.75-.66-.27-1.55-1.02-.88L9.48 25.42m16.81-11.24c.63-.92-.67-1.52-1.28-.5l-8.83 15.54M29.03 14.8c.24-1.06-1.11-1.17-1.39-.25l-4.08 16.94M31.7 14.9c-.09-1.09-1.49-.87-1.41.05l.7 16.23m3.4-16.73c-.3-1.04-1.62-.51-1.35.37l4.48 13.06m-.44-14.49c-.61-.93-1.71-.1-1.18.68l7.16 9.94M39.7 11.84c-.83-.78-1.7.24-.98.9l10.14 7.88" fill-rule="evenodd" clip-rule="evenodd" fill="#0b5eaa"></path><path class="st2" d="M4.15 52.43l5.41-3.32v3.02l-.38.2c-.36.21-.68.61-.67 1.14v14.11c0 .82.46.98 1.13.53l3.7-2.27s.74-.35.74-1.06V50.3c.02-.9-.79-.53-1.18-.28l-.52.34v-3.02l5.41-3.36v.03l2.17-1.37 4.39 5.34 3.87-10.48 3.28-2.08v3.15c-.31.24-.63.46-.63.99l.01 14.58c0 .91.85.2 1.11.02 0 0 .26-.14.26-.97v-1.16l2.65-1.4s0 1.76 1.47.9l3.31-2.08c1.41-.89 2.09-1.17 2.09-2.67v-3c0-.95-.21-2.14-2.24-.84l-3.69 2.32c-1.08.67-3.6.59-3.6-2.12v-5.23c0-2.05 1.58-3.96 2.65-4.58l4.82-2.94c1.32-.85 2.04 0 2.04 0v-.72l2.69-1.69v4.68l-2.69 1.69v-.97s-.45-.97-1.17-.57L36.2 35.5c-.7.46-1.32 1.19-1.32 2.5v3.37c0 .66.44 1.15 1.49.48l4.85-2.95c1.29-.86 3.22.1 3.22 1.65v5.94s.15 2.9-1.49 3.9l-6.45 4.02c-.8.49-1.6.04-1.6.04v.97l-2.65 1.62-5.08 3.16v-3.08l.38-.2c.36-.21.68-.6.67-1.14V44.67l-3.87 8.47-2.9-3.42v10.16c-.02.9.79.4 1.18.14l.33-.25v2.99l-5.22 3.31v-3.02l.42-.25c.31-.23.63-.46.63-.99 0-3.19-.01-14.37-.01-14.37 0-.8-.65-.62-.99-.45l-.42.26c-.31.24-.63.55-.63 1.07V65.4c0 .89-.51 1.6-.87 1.82 0 0-3.75 2.28-5.64 3.5-2.34 1.48-4.47 0-4.38-2.36V55.41c0-.91-.84-.48-1.11-.31l-.59.38"></path><path class="st2" d="M4.15 52.43l5.41-3.32v3.02l-.38.2c-.36.21-.68.61-.67 1.14v14.11c0 .82.46.98 1.13.53l3.7-2.27s.74-.35.74-1.06V50.3c.02-.9-.79-.53-1.18-.28l-.52.34v-3.02l5.41-3.36v.03l2.17-1.37 4.39 5.34 3.87-10.48 3.28-2.08v3.15c-.31.24-.63.46-.63.99l.01 14.58c0 .91.85.2 1.11.02 0 0 .26-.14.26-.97v-1.16l2.65-1.4s0 1.76 1.47.9l3.31-2.08c1.41-.89 2.09-1.17 2.09-2.67v-3c0-.95-.21-2.14-2.24-.84l-3.69 2.32c-1.08.67-3.6.59-3.6-2.12v-5.23c0-2.05 1.58-3.96 2.65-4.58l4.82-2.94c1.32-.85 2.04 0 2.04 0v-.72l2.69-1.69v4.68l-2.69 1.69v-.97s-.45-.97-1.17-.57L36.2 35.5c-.7.46-1.32 1.19-1.32 2.5v3.37c0 .66.44 1.15 1.49.48l4.85-2.95c1.29-.86 3.22.1 3.22 1.65v5.94s.15 2.9-1.49 3.9l-6.45 4.02c-.8.49-1.6.04-1.6.04v.97l-2.65 1.62-5.08 3.16v-3.08l.38-.2c.36-.21.68-.6.67-1.14V44.67l-3.87 8.47-2.9-3.42v10.16c-.02.9.79.4 1.18.14l.33-.25v2.99l-5.22 3.31v-3.02l.42-.25c.31-.23.63-.46.63-.99 0-3.19-.01-14.37-.01-14.37 0-.8-.65-.62-.99-.45l-.42.26c-.31.24-.63.55-.63 1.07V65.4c0 .89-.51 1.6-.87 1.82 0 0-3.75 2.28-5.64 3.5-2.34 1.48-4.47 0-4.38-2.36V55.41c0-.91-.84-.48-1.11-.31l-.59.38"></path><path class="st2" d="M4.15 52.43l5.41-3.32v3.02l-.38.2c-.36.21-.68.61-.67 1.14v14.11c0 .82.46.98 1.13.53l3.7-2.27s.74-.35.74-1.06V50.3c.02-.9-.79-.53-1.18-.28l-.52.34v-3.02l5.41-3.36v.03l2.17-1.37 4.39 5.34 3.87-10.48 3.28-2.08v3.15c-.31.24-.63.46-.63.99l.01 14.58c0 .91.85.2 1.11.02 0 0 .26-.14.26-.97v-1.16l2.65-1.4s0 1.76 1.47.9l3.31-2.08c1.41-.89 2.09-1.17 2.09-2.67v-3c0-.95-.21-2.14-2.24-.84l-3.69 2.32c-1.08.67-3.6.59-3.6-2.12v-5.23c0-2.05 1.58-3.96 2.65-4.58l4.82-2.94c1.32-.85 2.04 0 2.04 0v-.72l2.69-1.69v4.68l-2.69 1.69v-.97s-.45-.97-1.17-.57L36.2 35.5c-.7.46-1.32 1.19-1.32 2.5v3.37c0 .66.44 1.15 1.49.48l4.85-2.95c1.29-.86 3.22.1 3.22 1.65v5.94s.15 2.9-1.49 3.9l-6.45 4.02c-.8.49-1.6.04-1.6.04v.97l-2.65 1.62-5.08 3.16v-3.08l.38-.2c.36-.21.68-.6.67-1.14V44.67l-3.87 8.47-2.9-3.42v10.16c-.02.9.79.4 1.18.14l.33-.25v2.99l-5.22 3.31v-3.02l.42-.25c.31-.23.63-.46.63-.99 0-3.19-.01-14.37-.01-14.37 0-.8-.65-.62-.99-.45l-.42.26c-.31.24-.63.55-.63 1.07V65.4c0 .89-.51 1.6-.87 1.82 0 0-3.75 2.28-5.64 3.5-2.34 1.48-4.47 0-4.38-2.36V55.41c0-.91-.84-.48-1.11-.31l-.59.38m41.71-10.79v-1.16l2.65-1.4s0 1.77 1.47.9l3.31-2.08c1.41-.89 2.09-1.17 2.09-2.67v-3c0-.95-.21-2.14-2.24-.84l-3.68 2.32c-1.07.67-3.6.59-3.6-2.12v-5.23c0-2.05 1.58-3.96 2.65-4.58l4.82-2.94c1.32-.85 2.04 0 2.04 0v-.72l2.69-1.69v4.68l-2.69 1.69v-.97s-.46-.97-1.17-.57L49.82 27c-.7.46-1.32 1.19-1.32 2.5v3.37c0 .66.44 1.15 1.49.48l4.85-2.95c1.29-.86 3.22.1 3.22 1.65v5.94s.15 2.9-1.49 3.9l-6.45 4.02c-.81.52-1.61.06-1.61.06v.97l-2.65 1.62"></path></g></svg>